<svg viewBox="0 0 300 69" fill="none" xmlns="http://www.w3.org/2000/svg">
<path d="M225.134 50.5342C216.408 50.5342 210.52 44.0787 210.52 34.6944C210.52 25.31 216.408 18.8546 225.134 18.8546C233.861 18.8546 239.749 25.31 239.749 34.6944C239.749 44.0787 233.831 50.5342 225.134 50.5342ZM225.134 9.64954C211.178 9.64954 199.88 20.8569 199.88 34.6944C199.88 48.5318 211.178 59.7392 225.134 59.7392C239.091 59.7392 250.508 48.5318 250.508 34.6944C250.508 20.8569 239.062 9.64954 225.134 9.64954Z" fill="#191919"/>
<path d="M141.034 10.6657H130.395V55.7344C130.395 57.3483 131.71 58.6932 133.353 58.6932H160.49V49.9364H141.034V10.6657Z" fill="#191919"/>
<path d="M177.794 10.6657H167.155V55.7344C167.155 57.3483 168.47 58.6932 170.114 58.6932H199.97V49.9364H177.794V10.6657Z" fill="#191919"/>
<path d="M89.3903 42.8235L97.5792 24.264L105.798 42.8235H89.3903ZM100.598 10.6657H94.5905C93.425 10.6657 92.379 11.3531 91.9008 12.3991L71.04 58.6932H82.367L85.6545 51.2813H109.534L112.821 58.6932H124.148L103.287 12.3991C102.809 11.3531 101.763 10.6657 100.598 10.6657Z" fill="#191919"/>
<path d="M287.627 10.6657L274.387 32.4529L261.148 10.6657H248.805L268.231 41.1199C268.828 42.0763 269.157 43.1522 269.157 44.2879V58.6932H279.647V44.2879C279.647 43.1522 279.976 42.0763 280.574 41.1199L300 10.6657H287.627Z" fill="#191919"/>
<path d="M5.20024 4.32975C6.78422 3.40327 8.69695 3.40327 10.3108 4.32975L12.7316 5.73441C11.2971 6.48157 10.2809 7.79658 9.89241 9.41044L2.89898 39.8946L2.65989 40.313V8.72306C2.63001 6.89998 3.58637 5.25623 5.20024 4.32975ZM2.74955 46.2006C2.68978 46.0811 2.54035 45.7523 2.74955 45.3937L8.66707 35.1427L21.6975 12.5485L21.9964 12.0405C22.2056 11.6818 22.5643 11.622 22.7137 11.622C22.8631 11.622 23.2218 11.6519 23.431 12.0405L26.061 16.5832L42.4088 44.8856L42.7077 45.3937C42.7974 45.5431 42.8273 45.6627 42.8273 45.8121C42.8273 45.9914 42.7675 46.1409 42.7077 46.2305C42.6479 46.3501 42.4387 46.6489 41.9904 46.6489H36.7304H4.06456H3.46683C3.04842 46.619 2.83921 46.3202 2.74955 46.2006ZM44.9791 44.0787L32.636 22.7099L49.223 38.1313C50 38.8486 50.3288 39.9245 50.0897 40.9705C49.8506 42.0165 49.1034 42.8235 48.0873 43.1522L44.9791 44.0787ZM52.8093 40.4923C52.8691 38.8785 52.2415 37.3244 51.046 36.1887L28.153 14.9095L27.9139 14.4613L55.2301 30.2712C56.8141 31.1977 57.7705 32.8414 57.7705 34.6944C57.7705 36.5473 56.8141 38.1911 55.2301 39.1176L52.8093 40.4923ZM19.725 10.6956C19.725 10.6956 19.725 10.7254 19.725 10.6956L7.38195 32.0942L12.4328 10.0082C12.6718 8.96215 13.419 8.15521 14.4351 7.85635C15.4513 7.5276 16.5272 7.79658 17.3042 8.51385L19.725 10.6956ZM3.43694 49.2491C3.46683 49.2491 3.46683 49.2491 3.43694 49.2491H28.1231L6.45547 55.9137C5.43933 56.2425 4.36342 55.9735 3.55649 55.2562C2.77944 54.539 2.45069 53.463 2.68978 52.417L3.43694 49.2491ZM2.63001 57.8265C4.00478 58.6932 5.64854 58.9323 7.23252 58.4242L37.1189 49.2491H37.627L10.2809 65.0291C8.69695 65.9556 6.78422 65.9556 5.17035 65.0291C3.58637 64.1026 2.63001 62.4589 2.63001 60.6059V57.8265ZM11.6258 2.0285C9.20502 0.623833 6.30604 0.623833 3.88524 2.0285C1.43455 3.43316 0 5.94362 0 8.72306V45.7523V45.7822V45.8121V60.6059C0 63.4152 1.43455 65.8958 3.88524 67.3005C6.30604 68.7051 9.20502 68.7051 11.6258 67.3005L43.6641 48.8008C43.694 48.7709 43.7239 48.7709 43.7537 48.741L56.5451 41.359C58.9659 39.9544 60.4005 37.4439 60.4005 34.6645C60.4005 31.8552 58.9659 29.3447 56.5451 27.9699L24.477 9.44033C24.4471 9.44033 24.4471 9.41044 24.4172 9.41044L11.6258 2.0285Z" fill="#191919"/>
</svg>
